<?xml version="1.0" encoding="utf-8" standalone="no"?>
<!DOCTYPE svg PUBLIC "-//W3C//DTD SVG 1.1//EN"
  "http://www.w3.org/Graphics/SVG/1.1/DTD/svg11.dtd">
<svg xmlns:xlink="http://www.w3.org/1999/xlink" width="288pt" height="432pt" viewBox="0 0 288 432" xmlns="http://www.w3.org/2000/svg" version="1.1">
 <metadata>
  <rdf:RDF xmlns:dc="http://purl.org/dc/elements/1.1/" xmlns:cc="http://creativecommons.org/ns#" xmlns:rdf="http://www.w3.org/1999/02/22-rdf-syntax-ns#">
   <cc:Work>
    <dc:type rdf:resource="http://purl.org/dc/dcmitype/StillImage"/>
    <dc:date>2023-12-27T10:55:46.906907</dc:date>
    <dc:format>image/svg+xml</dc:format>
    <dc:creator>
     <cc:Agent>
      <dc:title>Matplotlib v3.7.2, https://matplotlib.org/</dc:title>
     </cc:Agent>
    </dc:creator>
   </cc:Work>
  </rdf:RDF>
 </metadata>
 <defs>
  <style type="text/css">*{stroke-linejoin: round; stroke-linecap: butt}</style>
 </defs>
 <g id="figure_1">
  <g id="patch_1">
   <path d="M 0 432 
L 288 432 
L 288 0 
L 0 0 
z
" style="fill: #ffffff"/>
  </g>
  <g id="axes_1">
   <g id="patch_2">
    <path d="M 36 384.48 
L 259.2 384.48 
L 259.2 51.84 
L 36 51.84 
z
" style="fill: #ffffff"/>
   </g>
   <g id="matplotlib.axis_1">
    <g id="xtick_1">
     <g id="line2d_1">
      <defs>
       <path id="ma2f74a605f" d="M 0 0 
L 0 6 
" style="stroke: #262626; stroke-width: 1.25"/>
      </defs>
      <g>
       <use xlink:href="#ma2f74a605f" x="91.8" y="394.48" style="fill: #262626; stroke: #262626; stroke-width: 1.25"/>
      </g>
     </g>
     <g id="text_1">
      <!-- Clarity -->
      <g style="fill: #262626" transform="translate(76.216094 411.987656) scale(0.11 -0.11)">
       <defs>
        <path id="ArialMT-43" d="M 3763 1606 
L 4369 1453 
Q 4178 706 3683 314 
Q 3188 -78 2472 -78 
Q 1731 -78 1267 223 
Q 803 525 561 1097 
Q 319 1669 319 2325 
Q 319 3041 592 3573 
Q 866 4106 1370 4382 
Q 1875 4659 2481 4659 
Q 3169 4659 3637 4309 
Q 4106 3959 4291 3325 
L 3694 3184 
Q 3534 3684 3231 3912 
Q 2928 4141 2469 4141 
Q 1941 4141 1586 3887 
Q 1231 3634 1087 3207 
Q 944 2781 944 2328 
Q 944 1744 1114 1308 
Q 1284 872 1643 656 
Q 2003 441 2422 441 
Q 2931 441 3284 734 
Q 3638 1028 3763 1606 
z
" transform="scale(0.015625)"/>
        <path id="ArialMT-6c" d="M 409 0 
L 409 4581 
L 972 4581 
L 972 0 
L 409 0 
z
" transform="scale(0.015625)"/>
        <path id="ArialMT-61" d="M 2588 409 
Q 2275 144 1986 34 
Q 1697 -75 1366 -75 
Q 819 -75 525 192 
Q 231 459 231 875 
Q 231 1119 342 1320 
Q 453 1522 633 1644 
Q 813 1766 1038 1828 
Q 1203 1872 1538 1913 
Q 2219 1994 2541 2106 
Q 2544 2222 2544 2253 
Q 2544 2597 2384 2738 
Q 2169 2928 1744 2928 
Q 1347 2928 1158 2789 
Q 969 2650 878 2297 
L 328 2372 
Q 403 2725 575 2942 
Q 747 3159 1072 3276 
Q 1397 3394 1825 3394 
Q 2250 3394 2515 3294 
Q 2781 3194 2906 3042 
Q 3031 2891 3081 2659 
Q 3109 2516 3109 2141 
L 3109 1391 
Q 3109 606 3145 398 
Q 3181 191 3288 0 
L 2700 0 
Q 2613 175 2588 409 
z
M 2541 1666 
Q 2234 1541 1622 1453 
Q 1275 1403 1131 1340 
Q 988 1278 909 1158 
Q 831 1038 831 891 
Q 831 666 1001 516 
Q 1172 366 1500 366 
Q 1825 366 2078 508 
Q 2331 650 2450 897 
Q 2541 1088 2541 1459 
L 2541 1666 
z
" transform="scale(0.015625)"/>
        <path id="ArialMT-72" d="M 416 0 
L 416 3319 
L 922 3319 
L 922 2816 
Q 1116 3169 1280 3281 
Q 1444 3394 1641 3394 
Q 1925 3394 2219 3213 
L 2025 2691 
Q 1819 2813 1613 2813 
Q 1428 2813 1281 2702 
Q 1134 2591 1072 2394 
Q 978 2094 978 1738 
L 978 0 
L 416 0 
z
" transform="scale(0.015625)"/>
        <path id="ArialMT-69" d="M 425 3934 
L 425 4581 
L 988 4581 
L 988 3934 
L 425 3934 
z
M 425 0 
L 425 3319 
L 988 3319 
L 988 0 
L 425 0 
z
" transform="scale(0.015625)"/>
        <path id="ArialMT-74" d="M 1650 503 
L 1731 6 
Q 1494 -44 1306 -44 
Q 1000 -44 831 53 
Q 663 150 594 308 
Q 525 466 525 972 
L 525 2881 
L 113 2881 
L 113 3319 
L 525 3319 
L 525 4141 
L 1084 4478 
L 1084 3319 
L 1650 3319 
L 1650 2881 
L 1084 2881 
L 1084 941 
Q 1084 700 1114 631 
Q 1144 563 1211 522 
Q 1278 481 1403 481 
Q 1497 481 1650 503 
z
" transform="scale(0.015625)"/>
        <path id="ArialMT-79" d="M 397 -1278 
L 334 -750 
Q 519 -800 656 -800 
Q 844 -800 956 -737 
Q 1069 -675 1141 -563 
Q 1194 -478 1313 -144 
Q 1328 -97 1363 -6 
L 103 3319 
L 709 3319 
L 1400 1397 
Q 1534 1031 1641 628 
Q 1738 1016 1872 1384 
L 2581 3319 
L 3144 3319 
L 1881 -56 
Q 1678 -603 1566 -809 
Q 1416 -1088 1222 -1217 
Q 1028 -1347 759 -1347 
Q 597 -1347 397 -1278 
z
" transform="scale(0.015625)"/>
       </defs>
       <use xlink:href="#ArialMT-43"/>
       <use xlink:href="#ArialMT-6c" x="72.216797"/>
       <use xlink:href="#ArialMT-61" x="94.433594"/>
       <use xlink:href="#ArialMT-72" x="150.048828"/>
       <use xlink:href="#ArialMT-69" x="183.349609"/>
       <use xlink:href="#ArialMT-74" x="205.566406"/>
       <use xlink:href="#ArialMT-79" x="233.349609"/>
      </g>
     </g>
    </g>
    <g id="xtick_2">
     <g id="line2d_2">
      <g>
       <use xlink:href="#ma2f74a605f" x="203.4" y="394.48" style="fill: #262626; stroke: #262626; stroke-width: 1.25"/>
      </g>
     </g>
     <g id="text_2">
      <!-- Quality -->
      <g style="fill: #262626" transform="translate(186.282969 411.994531) scale(0.11 -0.11)">
       <defs>
        <path id="ArialMT-51" d="M 3966 491 
Q 4388 200 4744 66 
L 4566 -356 
Q 4072 -178 3581 206 
Q 3072 -78 2456 -78 
Q 1834 -78 1328 222 
Q 822 522 548 1065 
Q 275 1609 275 2291 
Q 275 2969 550 3525 
Q 825 4081 1333 4372 
Q 1841 4663 2469 4663 
Q 3103 4663 3612 4361 
Q 4122 4059 4389 3517 
Q 4656 2975 4656 2294 
Q 4656 1728 4484 1276 
Q 4313 825 3966 491 
z
M 2631 1266 
Q 3156 1119 3497 828 
Q 4031 1316 4031 2294 
Q 4031 2850 3842 3265 
Q 3653 3681 3289 3911 
Q 2925 4141 2472 4141 
Q 1794 4141 1347 3677 
Q 900 3213 900 2291 
Q 900 1397 1342 919 
Q 1784 441 2472 441 
Q 2797 441 3084 563 
Q 2800 747 2484 825 
L 2631 1266 
z
" transform="scale(0.015625)"/>
        <path id="ArialMT-75" d="M 2597 0 
L 2597 488 
Q 2209 -75 1544 -75 
Q 1250 -75 995 37 
Q 741 150 617 320 
Q 494 491 444 738 
Q 409 903 409 1263 
L 409 3319 
L 972 3319 
L 972 1478 
Q 972 1038 1006 884 
Q 1059 663 1231 536 
Q 1403 409 1656 409 
Q 1909 409 2131 539 
Q 2353 669 2445 892 
Q 2538 1116 2538 1541 
L 2538 3319 
L 3100 3319 
L 3100 0 
L 2597 0 
z
" transform="scale(0.015625)"/>
       </defs>
       <use xlink:href="#ArialMT-51"/>
       <use xlink:href="#ArialMT-75" x="77.783203"/>
       <use xlink:href="#ArialMT-61" x="133.398438"/>
       <use xlink:href="#ArialMT-6c" x="189.013672"/>
       <use xlink:href="#ArialMT-69" x="211.230469"/>
       <use xlink:href="#ArialMT-74" x="233.447266"/>
       <use xlink:href="#ArialMT-79" x="261.230469"/>
      </g>
     </g>
    </g>
    <g id="text_3">
     <!-- question -->
     <g style="fill: #262626" transform="translate(124.917187 426.899063) scale(0.12 -0.12)">
      <defs>
       <path id="ArialMT-71" d="M 2538 -1272 
L 2538 353 
Q 2406 169 2170 47 
Q 1934 -75 1669 -75 
Q 1078 -75 651 397 
Q 225 869 225 1691 
Q 225 2191 398 2587 
Q 572 2984 901 3189 
Q 1231 3394 1625 3394 
Q 2241 3394 2594 2875 
L 2594 3319 
L 3100 3319 
L 3100 -1272 
L 2538 -1272 
z
M 803 1669 
Q 803 1028 1072 708 
Q 1341 388 1716 388 
Q 2075 388 2334 692 
Q 2594 997 2594 1619 
Q 2594 2281 2320 2615 
Q 2047 2950 1678 2950 
Q 1313 2950 1058 2639 
Q 803 2328 803 1669 
z
" transform="scale(0.015625)"/>
       <path id="ArialMT-65" d="M 2694 1069 
L 3275 997 
Q 3138 488 2766 206 
Q 2394 -75 1816 -75 
Q 1088 -75 661 373 
Q 234 822 234 1631 
Q 234 2469 665 2931 
Q 1097 3394 1784 3394 
Q 2450 3394 2872 2941 
Q 3294 2488 3294 1666 
Q 3294 1616 3291 1516 
L 816 1516 
Q 847 969 1125 678 
Q 1403 388 1819 388 
Q 2128 388 2347 550 
Q 2566 713 2694 1069 
z
M 847 1978 
L 2700 1978 
Q 2663 2397 2488 2606 
Q 2219 2931 1791 2931 
Q 1403 2931 1139 2672 
Q 875 2413 847 1978 
z
" transform="scale(0.015625)"/>
       <path id="ArialMT-73" d="M 197 991 
L 753 1078 
Q 800 744 1014 566 
Q 1228 388 1613 388 
Q 2000 388 2187 545 
Q 2375 703 2375 916 
Q 2375 1106 2209 1216 
Q 2094 1291 1634 1406 
Q 1016 1563 777 1677 
Q 538 1791 414 1992 
Q 291 2194 291 2438 
Q 291 2659 392 2848 
Q 494 3038 669 3163 
Q 800 3259 1026 3326 
Q 1253 3394 1513 3394 
Q 1903 3394 2198 3281 
Q 2494 3169 2634 2976 
Q 2775 2784 2828 2463 
L 2278 2388 
Q 2241 2644 2061 2787 
Q 1881 2931 1553 2931 
Q 1166 2931 1000 2803 
Q 834 2675 834 2503 
Q 834 2394 903 2306 
Q 972 2216 1119 2156 
Q 1203 2125 1616 2013 
Q 2213 1853 2448 1751 
Q 2684 1650 2818 1456 
Q 2953 1263 2953 975 
Q 2953 694 2789 445 
Q 2625 197 2315 61 
Q 2006 -75 1616 -75 
Q 969 -75 630 194 
Q 291 463 197 991 
z
" transform="scale(0.015625)"/>
       <path id="ArialMT-6f" d="M 213 1659 
Q 213 2581 725 3025 
Q 1153 3394 1769 3394 
Q 2453 3394 2887 2945 
Q 3322 2497 3322 1706 
Q 3322 1066 3130 698 
Q 2938 331 2570 128 
Q 2203 -75 1769 -75 
Q 1072 -75 642 372 
Q 213 819 213 1659 
z
M 791 1659 
Q 791 1022 1069 705 
Q 1347 388 1769 388 
Q 2188 388 2466 706 
Q 2744 1025 2744 1678 
Q 2744 2294 2464 2611 
Q 2184 2928 1769 2928 
Q 1347 2928 1069 2612 
Q 791 2297 791 1659 
z
" transform="scale(0.015625)"/>
       <path id="ArialMT-6e" d="M 422 0 
L 422 3319 
L 928 3319 
L 928 2847 
Q 1294 3394 1984 3394 
Q 2284 3394 2536 3286 
Q 2788 3178 2913 3003 
Q 3038 2828 3088 2588 
Q 3119 2431 3119 2041 
L 3119 0 
L 2556 0 
L 2556 2019 
Q 2556 2363 2490 2533 
Q 2425 2703 2258 2804 
Q 2091 2906 1866 2906 
Q 1506 2906 1245 2678 
Q 984 2450 984 1813 
L 984 0 
L 422 0 
z
" transform="scale(0.015625)"/>
      </defs>
      <use xlink:href="#ArialMT-71"/>
      <use xlink:href="#ArialMT-75" x="55.615234"/>
      <use xlink:href="#ArialMT-65" x="111.230469"/>
      <use xlink:href="#ArialMT-73" x="166.845703"/>
      <use xlink:href="#ArialMT-74" x="216.845703"/>
      <use xlink:href="#ArialMT-69" x="244.628906"/>
      <use xlink:href="#ArialMT-6f" x="266.845703"/>
      <use xlink:href="#ArialMT-6e" x="322.460938"/>
     </g>
    </g>
   </g>
   <g id="matplotlib.axis_2">
    <g id="ytick_1">
     <g id="line2d_3">
      <defs>
       <path id="m8013a51b91" d="M 0 0 
L -6 0 
" style="stroke: #262626; stroke-width: 1.25"/>
      </defs>
      <g>
       <use xlink:href="#m8013a51b91" x="26" y="384.48" style="fill: #262626; stroke: #262626; stroke-width: 1.25"/>
      </g>
     </g>
     <g id="text_4">
      <!-- 1 -->
      <g style="fill: #262626" transform="translate(10.382969 388.416797) scale(0.11 -0.11)">
       <defs>
        <path id="ArialMT-31" d="M 2384 0 
L 1822 0 
L 1822 3584 
Q 1619 3391 1289 3197 
Q 959 3003 697 2906 
L 697 3450 
Q 1169 3672 1522 3987 
Q 1875 4303 2022 4600 
L 2384 4600 
L 2384 0 
z
" transform="scale(0.015625)"/>
       </defs>
       <use xlink:href="#ArialMT-31"/>
      </g>
     </g>
    </g>
    <g id="ytick_2">
     <g id="line2d_4">
      <g>
       <use xlink:href="#m8013a51b91" x="26" y="301.32" style="fill: #262626; stroke: #262626; stroke-width: 1.25"/>
      </g>
     </g>
     <g id="text_5">
      <!-- 2 -->
      <g style="fill: #262626" transform="translate(10.382969 305.256797) scale(0.11 -0.11)">
       <defs>
        <path id="ArialMT-32" d="M 3222 541 
L 3222 0 
L 194 0 
Q 188 203 259 391 
Q 375 700 629 1000 
Q 884 1300 1366 1694 
Q 2113 2306 2375 2664 
Q 2638 3022 2638 3341 
Q 2638 3675 2398 3904 
Q 2159 4134 1775 4134 
Q 1369 4134 1125 3890 
Q 881 3647 878 3216 
L 300 3275 
Q 359 3922 746 4261 
Q 1134 4600 1788 4600 
Q 2447 4600 2831 4234 
Q 3216 3869 3216 3328 
Q 3216 3053 3103 2787 
Q 2991 2522 2730 2228 
Q 2469 1934 1863 1422 
Q 1356 997 1212 845 
Q 1069 694 975 541 
L 3222 541 
z
" transform="scale(0.015625)"/>
       </defs>
       <use xlink:href="#ArialMT-32"/>
      </g>
     </g>
    </g>
    <g id="ytick_3">
     <g id="line2d_5">
      <g>
       <use xlink:href="#m8013a51b91" x="26" y="218.16" style="fill: #262626; stroke: #262626; stroke-width: 1.25"/>
      </g>
     </g>
     <g id="text_6">
      <!-- 3 -->
      <g style="fill: #262626" transform="translate(10.382969 222.096797) scale(0.11 -0.11)">
       <defs>
        <path id="ArialMT-33" d="M 269 1209 
L 831 1284 
Q 928 806 1161 595 
Q 1394 384 1728 384 
Q 2125 384 2398 659 
Q 2672 934 2672 1341 
Q 2672 1728 2419 1979 
Q 2166 2231 1775 2231 
Q 1616 2231 1378 2169 
L 1441 2663 
Q 1497 2656 1531 2656 
Q 1891 2656 2178 2843 
Q 2466 3031 2466 3422 
Q 2466 3731 2256 3934 
Q 2047 4138 1716 4138 
Q 1388 4138 1169 3931 
Q 950 3725 888 3313 
L 325 3413 
Q 428 3978 793 4289 
Q 1159 4600 1703 4600 
Q 2078 4600 2393 4439 
Q 2709 4278 2876 4000 
Q 3044 3722 3044 3409 
Q 3044 3113 2884 2869 
Q 2725 2625 2413 2481 
Q 2819 2388 3044 2092 
Q 3269 1797 3269 1353 
Q 3269 753 2831 336 
Q 2394 -81 1725 -81 
Q 1122 -81 723 278 
Q 325 638 269 1209 
z
" transform="scale(0.015625)"/>
       </defs>
       <use xlink:href="#ArialMT-33"/>
      </g>
     </g>
    </g>
    <g id="ytick_4">
     <g id="line2d_6">
      <g>
       <use xlink:href="#m8013a51b91" x="26" y="135" style="fill: #262626; stroke: #262626; stroke-width: 1.25"/>
      </g>
     </g>
     <g id="text_7">
      <!-- 4 -->
      <g style="fill: #262626" transform="translate(10.382969 138.936797) scale(0.11 -0.11)">
       <defs>
        <path id="ArialMT-34" d="M 2069 0 
L 2069 1097 
L 81 1097 
L 81 1613 
L 2172 4581 
L 2631 4581 
L 2631 1613 
L 3250 1613 
L 3250 1097 
L 2631 1097 
L 2631 0 
L 2069 0 
z
M 2069 1613 
L 2069 3678 
L 634 1613 
L 2069 1613 
z
" transform="scale(0.015625)"/>
       </defs>
       <use xlink:href="#ArialMT-34"/>
      </g>
     </g>
    </g>
    <g id="ytick_5">
     <g id="line2d_7">
      <g>
       <use xlink:href="#m8013a51b91" x="26" y="51.84" style="fill: #262626; stroke: #262626; stroke-width: 1.25"/>
      </g>
     </g>
     <g id="text_8">
      <!-- 5 -->
      <g style="fill: #262626" transform="translate(10.382969 55.776797) scale(0.11 -0.11)">
       <defs>
        <path id="ArialMT-35" d="M 266 1200 
L 856 1250 
Q 922 819 1161 601 
Q 1400 384 1738 384 
Q 2144 384 2425 690 
Q 2706 997 2706 1503 
Q 2706 1984 2436 2262 
Q 2166 2541 1728 2541 
Q 1456 2541 1237 2417 
Q 1019 2294 894 2097 
L 366 2166 
L 809 4519 
L 3088 4519 
L 3088 3981 
L 1259 3981 
L 1013 2750 
Q 1425 3038 1878 3038 
Q 2478 3038 2890 2622 
Q 3303 2206 3303 1553 
Q 3303 931 2941 478 
Q 2500 -78 1738 -78 
Q 1113 -78 717 272 
Q 322 622 266 1200 
z
" transform="scale(0.015625)"/>
       </defs>
       <use xlink:href="#ArialMT-35"/>
      </g>
     </g>
    </g>
    <g id="text_9">
     <!-- rating -->
     <g style="fill: #262626" transform="translate(3.857344 233.1675) rotate(-90) scale(0.12 -0.12)">
      <defs>
       <path id="ArialMT-67" d="M 319 -275 
L 866 -356 
Q 900 -609 1056 -725 
Q 1266 -881 1628 -881 
Q 2019 -881 2231 -725 
Q 2444 -569 2519 -288 
Q 2563 -116 2559 434 
Q 2191 0 1641 0 
Q 956 0 581 494 
Q 206 988 206 1678 
Q 206 2153 378 2554 
Q 550 2956 876 3175 
Q 1203 3394 1644 3394 
Q 2231 3394 2613 2919 
L 2613 3319 
L 3131 3319 
L 3131 450 
Q 3131 -325 2973 -648 
Q 2816 -972 2473 -1159 
Q 2131 -1347 1631 -1347 
Q 1038 -1347 672 -1080 
Q 306 -813 319 -275 
z
M 784 1719 
Q 784 1066 1043 766 
Q 1303 466 1694 466 
Q 2081 466 2343 764 
Q 2606 1063 2606 1700 
Q 2606 2309 2336 2618 
Q 2066 2928 1684 2928 
Q 1309 2928 1046 2623 
Q 784 2319 784 1719 
z
" transform="scale(0.015625)"/>
      </defs>
      <use xlink:href="#ArialMT-72"/>
      <use xlink:href="#ArialMT-61" x="33.300781"/>
      <use xlink:href="#ArialMT-74" x="88.916016"/>
      <use xlink:href="#ArialMT-69" x="116.699219"/>
      <use xlink:href="#ArialMT-6e" x="138.916016"/>
      <use xlink:href="#ArialMT-67" x="194.53125"/>
     </g>
    </g>
   </g>
   <g id="PolyCollection_1">
    <defs>
     <path id="m1b8703aeb6" d="M 91.8 -233.007616 
L 90.405589 -233.007616 
L 90.104754 -234.379365 
L 89.754105 -235.751115 
L 89.348908 -237.122865 
L 88.884721 -238.494615 
L 88.357574 -239.866365 
L 87.764151 -241.238114 
L 87.101984 -242.609864 
L 86.369639 -243.981614 
L 85.566889 -245.353364 
L 84.694861 -246.725114 
L 83.756158 -248.096863 
L 82.754936 -249.468613 
L 81.696928 -250.840363 
L 80.58943 -252.212113 
L 79.441214 -253.583863 
L 78.262404 -254.955612 
L 77.064279 -256.327362 
L 75.859051 -257.699112 
L 74.659586 -259.070862 
L 73.479109 -260.442612 
L 72.330881 -261.814361 
L 71.227881 -263.186111 
L 70.182484 -264.557861 
L 69.206157 -265.929611 
L 68.309186 -267.301361 
L 67.500422 -268.67311 
L 66.787074 -270.04486 
L 66.174528 -271.41661 
L 65.666209 -272.78836 
L 65.263479 -274.16011 
L 64.96556 -275.531859 
L 64.769498 -276.903609 
L 64.670151 -278.275359 
L 64.6602 -279.647109 
L 64.730205 -281.018859 
L 64.868679 -282.390608 
L 65.062212 -283.762358 
L 65.295633 -285.134108 
L 65.552228 -286.505858 
L 65.814014 -287.877608 
L 66.06207 -289.249357 
L 66.276945 -290.621107 
L 66.439111 -291.992857 
L 66.529491 -293.364607 
L 66.530019 -294.736357 
L 66.424238 -296.108106 
L 66.197913 -297.479856 
L 65.839625 -298.851606 
L 65.341333 -300.223356 
L 64.698873 -301.595106 
L 63.912359 -302.966855 
L 62.98648 -304.338605 
L 61.930648 -305.710355 
L 60.758994 -307.082105 
L 59.490211 -308.453855 
L 58.147209 -309.825604 
L 56.756627 -311.197354 
L 55.348175 -312.569104 
L 53.953858 -313.940854 
L 52.607081 -315.312604 
L 51.34169 -316.684353 
L 50.19096 -318.056103 
L 49.186597 -319.427853 
L 48.357765 -320.799603 
L 47.730191 -322.171353 
L 47.325386 -323.543102 
L 47.16 -324.914852 
L 47.24534 -326.286602 
L 47.587077 -327.658352 
L 48.185137 -329.030102 
L 49.033785 -330.401851 
L 50.121894 -331.773601 
L 51.433386 -333.145351 
L 52.94781 -334.517101 
L 54.641056 -335.888851 
L 56.486147 -337.2606 
L 58.454085 -338.63235 
L 60.51473 -340.0041 
L 62.637654 -341.37585 
L 64.792953 -342.7476 
L 66.951996 -344.119349 
L 69.088072 -345.491099 
L 71.176926 -346.862849 
L 73.197182 -348.234599 
L 75.130626 -349.606349 
L 76.962376 -350.978099 
L 78.680924 -352.349848 
L 80.278071 -353.721598 
L 81.748767 -355.093348 
L 83.090871 -356.465098 
L 84.304852 -357.836848 
L 85.393445 -359.208597 
L 86.361284 -360.580347 
L 87.214527 -361.952097 
L 87.960487 -363.323847 
L 88.607282 -364.695597 
L 89.163513 -366.067346 
L 89.637981 -367.439096 
L 90.039443 -368.810846 
L 91.8 -368.810846 
L 91.8 -368.810846 
L 91.8 -367.439096 
L 91.8 -366.067346 
L 91.8 -364.695597 
L 91.8 -363.323847 
L 91.8 -361.952097 
L 91.8 -360.580347 
L 91.8 -359.208597 
L 91.8 -357.836848 
L 91.8 -356.465098 
L 91.8 -355.093348 
L 91.8 -353.721598 
L 91.8 -352.349848 
L 91.8 -350.978099 
L 91.8 -349.606349 
L 91.8 -348.234599 
L 91.8 -346.862849 
L 91.8 -345.491099 
L 91.8 -344.119349 
L 91.8 -342.7476 
L 91.8 -341.37585 
L 91.8 -340.0041 
L 91.8 -338.63235 
L 91.8 -337.2606 
L 91.8 -335.888851 
L 91.8 -334.517101 
L 91.8 -333.145351 
L 91.8 -331.773601 
L 91.8 -330.401851 
L 91.8 -329.030102 
L 91.8 -327.658352 
L 91.8 -326.286602 
L 91.8 -324.914852 
L 91.8 -323.543102 
L 91.8 -322.171353 
L 91.8 -320.799603 
L 91.8 -319.427853 
L 91.8 -318.056103 
L 91.8 -316.684353 
L 91.8 -315.312604 
L 91.8 -313.940854 
L 91.8 -312.569104 
L 91.8 -311.197354 
L 91.8 -309.825604 
L 91.8 -308.453855 
L 91.8 -307.082105 
L 91.8 -305.710355 
L 91.8 -304.338605 
L 91.8 -302.966855 
L 91.8 -301.595106 
L 91.8 -300.223356 
L 91.8 -298.851606 
L 91.8 -297.479856 
L 91.8 -296.108106 
L 91.8 -294.736357 
L 91.8 -293.364607 
L 91.8 -291.992857 
L 91.8 -290.621107 
L 91.8 -289.249357 
L 91.8 -287.877608 
L 91.8 -286.505858 
L 91.8 -285.134108 
L 91.8 -283.762358 
L 91.8 -282.390608 
L 91.8 -281.018859 
L 91.8 -279.647109 
L 91.8 -278.275359 
L 91.8 -276.903609 
L 91.8 -275.531859 
L 91.8 -274.16011 
L 91.8 -272.78836 
L 91.8 -271.41661 
L 91.8 -270.04486 
L 91.8 -268.67311 
L 91.8 -267.301361 
L 91.8 -265.929611 
L 91.8 -264.557861 
L 91.8 -263.186111 
L 91.8 -261.814361 
L 91.8 -260.442612 
L 91.8 -259.070862 
L 91.8 -257.699112 
L 91.8 -256.327362 
L 91.8 -254.955612 
L 91.8 -253.583863 
L 91.8 -252.212113 
L 91.8 -250.840363 
L 91.8 -249.468613 
L 91.8 -248.096863 
L 91.8 -246.725114 
L 91.8 -245.353364 
L 91.8 -243.981614 
L 91.8 -242.609864 
L 91.8 -241.238114 
L 91.8 -239.866365 
L 91.8 -238.494615 
L 91.8 -237.122865 
L 91.8 -235.751115 
L 91.8 -234.379365 
L 91.8 -233.007616 
z
" style="stroke: #4c4c4c; stroke-opacity: 0.3"/>
    </defs>
    <g clip-path="url(#p355bb0631f)">
     <use xlink:href="#m1b8703aeb6" x="0" y="432" style="fill: #b55d60; fill-opacity: 0.3; stroke: #4c4c4c; stroke-opacity: 0.3"/>
    </g>
   </g>
   <g id="PolyCollection_2">
    <defs>
     <path id="m20a96ffe25" d="M 93.803902 -252.651375 
L 91.8 -252.651375 
L 91.8 -253.367819 
L 91.8 -254.084264 
L 91.8 -254.800708 
L 91.8 -255.517153 
L 91.8 -256.233598 
L 91.8 -256.950042 
L 91.8 -257.666487 
L 91.8 -258.382932 
L 91.8 -259.099376 
L 91.8 -259.815821 
L 91.8 -260.532266 
L 91.8 -261.24871 
L 91.8 -261.965155 
L 91.8 -262.6816 
L 91.8 -263.398044 
L 91.8 -264.114489 
L 91.8 -264.830934 
L 91.8 -265.547378 
L 91.8 -266.263823 
L 91.8 -266.980268 
L 91.8 -267.696712 
L 91.8 -268.413157 
L 91.8 -269.129601 
L 91.8 -269.846046 
L 91.8 -270.562491 
L 91.8 -271.278935 
L 91.8 -271.99538 
L 91.8 -272.711825 
L 91.8 -273.428269 
L 91.8 -274.144714 
L 91.8 -274.861159 
L 91.8 -275.577603 
L 91.8 -276.294048 
L 91.8 -277.010493 
L 91.8 -277.726937 
L 91.8 -278.443382 
L 91.8 -279.159827 
L 91.8 -279.876271 
L 91.8 -280.592716 
L 91.8 -281.30916 
L 91.8 -282.025605 
L 91.8 -282.74205 
L 91.8 -283.458494 
L 91.8 -284.174939 
L 91.8 -284.891384 
L 91.8 -285.607828 
L 91.8 -286.324273 
L 91.8 -287.040718 
L 91.8 -287.757162 
L 91.8 -288.473607 
L 91.8 -289.190052 
L 91.8 -289.906496 
L 91.8 -290.622941 
L 91.8 -291.339386 
L 91.8 -292.05583 
L 91.8 -292.772275 
L 91.8 -293.488719 
L 91.8 -294.205164 
L 91.8 -294.921609 
L 91.8 -295.638053 
L 91.8 -296.354498 
L 91.8 -297.070943 
L 91.8 -297.787387 
L 91.8 -298.503832 
L 91.8 -299.220277 
L 91.8 -299.936721 
L 91.8 -300.653166 
L 91.8 -301.369611 
L 91.8 -302.086055 
L 91.8 -302.8025 
L 91.8 -303.518945 
L 91.8 -304.235389 
L 91.8 -304.951834 
L 91.8 -305.668278 
L 91.8 -306.384723 
L 91.8 -307.101168 
L 91.8 -307.817612 
L 91.8 -308.534057 
L 91.8 -309.250502 
L 91.8 -309.966946 
L 91.8 -310.683391 
L 91.8 -311.399836 
L 91.8 -312.11628 
L 91.8 -312.832725 
L 91.8 -313.54917 
L 91.8 -314.265614 
L 91.8 -314.982059 
L 91.8 -315.698504 
L 91.8 -316.414948 
L 91.8 -317.131393 
L 91.8 -317.847838 
L 91.8 -318.564282 
L 91.8 -319.280727 
L 91.8 -319.997171 
L 91.8 -320.713616 
L 91.8 -321.430061 
L 91.8 -322.146505 
L 91.8 -322.86295 
L 91.8 -323.579395 
L 92.624926 -323.579395 
L 92.624926 -323.579395 
L 92.809899 -322.86295 
L 93.025528 -322.146505 
L 93.274323 -321.430061 
L 93.558459 -320.713616 
L 93.87966 -319.997171 
L 94.239084 -319.280727 
L 94.637227 -318.564282 
L 95.073838 -317.847838 
L 95.547864 -317.131393 
L 96.057419 -316.414948 
L 96.599789 -315.698504 
L 97.171473 -314.982059 
L 97.768254 -314.265614 
L 98.385305 -313.54917 
L 99.017329 -312.832725 
L 99.658709 -312.11628 
L 100.303689 -311.399836 
L 100.946556 -310.683391 
L 101.581834 -309.966946 
L 102.204472 -309.250502 
L 102.810029 -308.534057 
L 103.394849 -307.817612 
L 103.956231 -307.101168 
L 104.492581 -306.384723 
L 105.003548 -305.668278 
L 105.490147 -304.951834 
L 105.954857 -304.235389 
L 106.401689 -303.518945 
L 106.836217 -302.8025 
L 107.265562 -302.086055 
L 107.698319 -301.369611 
L 108.14441 -300.653166 
L 108.614861 -299.936721 
L 109.121496 -299.220277 
L 109.676538 -298.503832 
L 110.292133 -297.787387 
L 110.979806 -297.070943 
L 111.749866 -296.354498 
L 112.610787 -295.638053 
L 113.568609 -294.921609 
L 114.626382 -294.205164 
L 115.783704 -293.488719 
L 117.036389 -292.772275 
L 118.376296 -292.05583 
L 119.791347 -291.339386 
L 121.265744 -290.622941 
L 122.7804 -289.906496 
L 124.313548 -289.190052 
L 125.841527 -288.473607 
L 127.33968 -287.757162 
L 128.783333 -287.040718 
L 130.148785 -286.324273 
L 131.414247 -285.607828 
L 132.56068 -284.891384 
L 133.572465 -284.174939 
L 134.437873 -283.458494 
L 135.149295 -282.74205 
L 135.703235 -282.025605 
L 136.100049 -281.30916 
L 136.343479 -280.592716 
L 136.44 -279.876271 
L 136.398042 -279.159827 
L 136.22715 -278.443382 
L 135.937141 -277.726937 
L 135.537325 -277.010493 
L 135.035855 -276.294048 
L 134.439239 -275.577603 
L 133.752066 -274.861159 
L 132.976943 -274.144714 
L 132.114655 -273.428269 
L 131.164528 -272.711825 
L 130.124942 -271.99538 
L 128.993974 -271.278935 
L 127.770089 -270.562491 
L 126.452833 -269.846046 
L 125.04346 -269.129601 
L 123.545453 -268.413157 
L 121.964877 -267.696712 
L 120.310558 -266.980268 
L 118.594059 -266.263823 
L 116.82946 -265.547378 
L 115.032966 -264.830934 
L 113.222361 -264.114489 
L 111.41637 -263.398044 
L 109.63395 -262.6816 
L 107.893581 -261.965155 
L 106.212593 -261.24871 
L 104.606563 -260.532266 
L 103.088836 -259.815821 
L 101.670165 -259.099376 
L 100.358505 -258.382932 
L 99.158943 -257.666487 
L 98.07377 -256.950042 
L 97.102661 -256.233598 
L 96.242961 -255.517153 
L 95.490028 -254.800708 
L 94.837625 -254.084264 
L 94.278325 -253.367819 
L 93.803902 -252.651375 
z
" style="stroke: #4c4c4c; stroke-opacity: 0.3"/>
    </defs>
    <g clip-path="url(#p355bb0631f)">
     <use xlink:href="#m20a96ffe25" x="0" y="432" style="fill: #5875a4; fill-opacity: 0.3; stroke: #4c4c4c; stroke-opacity: 0.3"/>
    </g>
   </g>
   <g id="PolyCollection_3">
    <defs>
     <path id="mb6eb887661" d="M 203.4 -227.298297 
L 201.562713 -227.298297 
L 201.178892 -228.806925 
L 200.73564 -230.315553 
L 200.228545 -231.824181 
L 199.653893 -233.332809 
L 199.008903 -234.841437 
L 198.291961 -236.350065 
L 197.502844 -237.858693 
L 196.64291 -239.367321 
L 195.715251 -240.875949 
L 194.724797 -242.384577 
L 193.678347 -243.893205 
L 192.584526 -245.401833 
L 191.453662 -246.910461 
L 190.297579 -248.419089 
L 189.129307 -249.927717 
L 187.962723 -251.436345 
L 186.812126 -252.944973 
L 185.691777 -254.453602 
L 184.615412 -255.96223 
L 183.595764 -257.470858 
L 182.644108 -258.979486 
L 181.769855 -260.488114 
L 180.98023 -261.996742 
L 180.280028 -263.50537 
L 179.671479 -265.013998 
L 179.154226 -266.522626 
L 178.725399 -268.031254 
L 178.379802 -269.539882 
L 178.110183 -271.04851 
L 177.90757 -272.557138 
L 177.76166 -274.065766 
L 177.661229 -275.574394 
L 177.594544 -277.083022 
L 177.549753 -278.59165 
L 177.515242 -280.100278 
L 177.479936 -281.608906 
L 177.433544 -283.117534 
L 177.366744 -284.626162 
L 177.271313 -286.13479 
L 177.140206 -287.643418 
L 176.967596 -289.152046 
L 176.748895 -290.660674 
L 176.480757 -292.169302 
L 176.161085 -293.67793 
L 175.789041 -295.186558 
L 175.365075 -296.695186 
L 174.890966 -298.203815 
L 174.36987 -299.712443 
L 173.806373 -301.221071 
L 173.206542 -302.729699 
L 172.577942 -304.238327 
L 171.929635 -305.746955 
L 171.272126 -307.255583 
L 170.617257 -308.764211 
L 169.978038 -310.272839 
L 169.368418 -311.781467 
L 168.802997 -313.290095 
L 168.296683 -314.798723 
L 167.864307 -316.307351 
L 167.520218 -317.815979 
L 167.277864 -319.324607 
L 167.149383 -320.833235 
L 167.145224 -322.341863 
L 167.273815 -323.850491 
L 167.541286 -325.359119 
L 167.951268 -326.867747 
L 168.504772 -328.376375 
L 169.200143 -329.885003 
L 170.033104 -331.393631 
L 170.996878 -332.902259 
L 172.082377 -334.410887 
L 173.278457 -335.919515 
L 174.572217 -337.428143 
L 175.949343 -338.936771 
L 177.394471 -340.445399 
L 178.891565 -341.954028 
L 180.424287 -343.462656 
L 181.976368 -344.971284 
L 183.531945 -346.479912 
L 185.075876 -347.98854 
L 186.594011 -349.497168 
L 188.073433 -351.005796 
L 189.502638 -352.514424 
L 190.871681 -354.023052 
L 192.172265 -355.53168 
L 193.397786 -357.040308 
L 194.543336 -358.548936 
L 195.605654 -360.057564 
L 196.583049 -361.566192 
L 197.475289 -363.07482 
L 198.283458 -364.583448 
L 199.009796 -366.092076 
L 199.657529 -367.600704 
L 200.230685 -369.109332 
L 200.733916 -370.61796 
L 201.17232 -372.126588 
L 201.551275 -373.635216 
L 201.876285 -375.143844 
L 202.15285 -376.652472 
L 203.4 -376.652472 
L 203.4 -376.652472 
L 203.4 -375.143844 
L 203.4 -373.635216 
L 203.4 -372.126588 
L 203.4 -370.61796 
L 203.4 -369.109332 
L 203.4 -367.600704 
L 203.4 -366.092076 
L 203.4 -364.583448 
L 203.4 -363.07482 
L 203.4 -361.566192 
L 203.4 -360.057564 
L 203.4 -358.548936 
L 203.4 -357.040308 
L 203.4 -355.53168 
L 203.4 -354.023052 
L 203.4 -352.514424 
L 203.4 -351.005796 
L 203.4 -349.497168 
L 203.4 -347.98854 
L 203.4 -346.479912 
L 203.4 -344.971284 
L 203.4 -343.462656 
L 203.4 -341.954028 
L 203.4 -340.445399 
L 203.4 -338.936771 
L 203.4 -337.428143 
L 203.4 -335.919515 
L 203.4 -334.410887 
L 203.4 -332.902259 
L 203.4 -331.393631 
L 203.4 -329.885003 
L 203.4 -328.376375 
L 203.4 -326.867747 
L 203.4 -325.359119 
L 203.4 -323.850491 
L 203.4 -322.341863 
L 203.4 -320.833235 
L 203.4 -319.324607 
L 203.4 -317.815979 
L 203.4 -316.307351 
L 203.4 -314.798723 
L 203.4 -313.290095 
L 203.4 -311.781467 
L 203.4 -310.272839 
L 203.4 -308.764211 
L 203.4 -307.255583 
L 203.4 -305.746955 
L 203.4 -304.238327 
L 203.4 -302.729699 
L 203.4 -301.221071 
L 203.4 -299.712443 
L 203.4 -298.203815 
L 203.4 -296.695186 
L 203.4 -295.186558 
L 203.4 -293.67793 
L 203.4 -292.169302 
L 203.4 -290.660674 
L 203.4 -289.152046 
L 203.4 -287.643418 
L 203.4 -286.13479 
L 203.4 -284.626162 
L 203.4 -283.117534 
L 203.4 -281.608906 
L 203.4 -280.100278 
L 203.4 -278.59165 
L 203.4 -277.083022 
L 203.4 -275.574394 
L 203.4 -274.065766 
L 203.4 -272.557138 
L 203.4 -271.04851 
L 203.4 -269.539882 
L 203.4 -268.031254 
L 203.4 -266.522626 
L 203.4 -265.013998 
L 203.4 -263.50537 
L 203.4 -261.996742 
L 203.4 -260.488114 
L 203.4 -258.979486 
L 203.4 -257.470858 
L 203.4 -255.96223 
L 203.4 -254.453602 
L 203.4 -252.944973 
L 203.4 -251.436345 
L 203.4 -249.927717 
L 203.4 -248.419089 
L 203.4 -246.910461 
L 203.4 -245.401833 
L 203.4 -243.893205 
L 203.4 -242.384577 
L 203.4 -240.875949 
L 203.4 -239.367321 
L 203.4 -237.858693 
L 203.4 -236.350065 
L 203.4 -234.841437 
L 203.4 -233.332809 
L 203.4 -231.824181 
L 203.4 -230.315553 
L 203.4 -228.806925 
L 203.4 -227.298297 
z
" style="stroke: #4c4c4c; stroke-opacity: 0.3"/>
    </defs>
    <g clip-path="url(#p355bb0631f)">
     <use xlink:href="#mb6eb887661" x="0" y="432" style="fill: #b55d60; fill-opacity: 0.3; stroke: #4c4c4c; stroke-opacity: 0.3"/>
    </g>
   </g>
   <g id="PolyCollection_4">
    <defs>
     <path id="m138d48badd" d="M 204.278708 -254.076303 
L 203.4 -254.076303 
L 203.4 -254.893192 
L 203.4 -255.710081 
L 203.4 -256.52697 
L 203.4 -257.343859 
L 203.4 -258.160748 
L 203.4 -258.977637 
L 203.4 -259.794526 
L 203.4 -260.611415 
L 203.4 -261.428304 
L 203.4 -262.245193 
L 203.4 -263.062082 
L 203.4 -263.878971 
L 203.4 -264.69586 
L 203.4 -265.512749 
L 203.4 -266.329638 
L 203.4 -267.146527 
L 203.4 -267.963416 
L 203.4 -268.780305 
L 203.4 -269.597193 
L 203.4 -270.414082 
L 203.4 -271.230971 
L 203.4 -272.04786 
L 203.4 -272.864749 
L 203.4 -273.681638 
L 203.4 -274.498527 
L 203.4 -275.315416 
L 203.4 -276.132305 
L 203.4 -276.949194 
L 203.4 -277.766083 
L 203.4 -278.582972 
L 203.4 -279.399861 
L 203.4 -280.21675 
L 203.4 -281.033639 
L 203.4 -281.850528 
L 203.4 -282.667417 
L 203.4 -283.484306 
L 203.4 -284.301195 
L 203.4 -285.118084 
L 203.4 -285.934973 
L 203.4 -286.751862 
L 203.4 -287.568751 
L 203.4 -288.38564 
L 203.4 -289.202529 
L 203.4 -290.019418 
L 203.4 -290.836307 
L 203.4 -291.653196 
L 203.4 -292.470085 
L 203.4 -293.286974 
L 203.4 -294.103863 
L 203.4 -294.920752 
L 203.4 -295.737641 
L 203.4 -296.55453 
L 203.4 -297.371419 
L 203.4 -298.188308 
L 203.4 -299.005197 
L 203.4 -299.822086 
L 203.4 -300.638975 
L 203.4 -301.455864 
L 203.4 -302.272753 
L 203.4 -303.089642 
L 203.4 -303.906531 
L 203.4 -304.72342 
L 203.4 -305.540309 
L 203.4 -306.357198 
L 203.4 -307.174087 
L 203.4 -307.990976 
L 203.4 -308.807865 
L 203.4 -309.624754 
L 203.4 -310.441643 
L 203.4 -311.258532 
L 203.4 -312.075421 
L 203.4 -312.89231 
L 203.4 -313.709199 
L 203.4 -314.526088 
L 203.4 -315.342977 
L 203.4 -316.159866 
L 203.4 -316.976755 
L 203.4 -317.793644 
L 203.4 -318.610533 
L 203.4 -319.427422 
L 203.4 -320.244311 
L 203.4 -321.0612 
L 203.4 -321.878089 
L 203.4 -322.694978 
L 203.4 -323.511867 
L 203.4 -324.328756 
L 203.4 -325.145645 
L 203.4 -325.962534 
L 203.4 -326.779423 
L 203.4 -327.596312 
L 203.4 -328.413201 
L 203.4 -329.23009 
L 203.4 -330.046979 
L 203.4 -330.863868 
L 203.4 -331.680757 
L 203.4 -332.497646 
L 203.4 -333.314535 
L 203.4 -334.131424 
L 203.4 -334.948313 
L 204.405262 -334.948313 
L 204.405262 -334.948313 
L 204.643536 -334.131424 
L 204.922909 -333.314535 
L 205.246487 -332.497646 
L 205.616657 -331.680757 
L 206.034864 -330.863868 
L 206.501407 -330.046979 
L 207.015264 -329.23009 
L 207.573974 -328.413201 
L 208.173593 -327.596312 
L 208.808741 -326.779423 
L 209.472741 -325.962534 
L 210.157882 -325.145645 
L 210.855769 -324.328756 
L 211.557777 -323.511867 
L 212.255573 -322.694978 
L 212.941676 -321.878089 
L 213.610037 -321.0612 
L 214.256564 -320.244311 
L 214.879585 -319.427422 
L 215.480182 -318.610533 
L 216.062371 -317.793644 
L 216.633107 -316.976755 
L 217.202079 -316.159866 
L 217.781318 -315.342977 
L 218.384619 -314.526088 
L 219.026806 -313.709199 
L 219.72288 -312.89231 
L 220.487106 -312.075421 
L 221.332088 -311.258532 
L 222.267897 -310.441643 
L 223.301301 -309.624754 
L 224.435143 -308.807865 
L 225.667916 -307.990976 
L 226.993549 -307.174087 
L 228.401412 -306.357198 
L 229.876554 -305.540309 
L 231.400137 -304.72342 
L 232.950045 -303.906531 
L 234.501642 -303.089642 
L 236.028623 -302.272753 
L 237.503922 -301.455864 
L 238.900636 -300.638975 
L 240.192927 -299.822086 
L 241.356859 -299.005197 
L 242.371153 -298.188308 
L 243.217834 -297.371419 
L 243.88274 -296.55453 
L 244.355909 -295.737641 
L 244.631804 -294.920752 
L 244.709394 -294.103863 
L 244.592084 -293.286974 
L 244.287496 -292.470085 
L 243.807107 -291.653196 
L 243.165762 -290.836307 
L 242.381074 -290.019418 
L 241.472737 -289.202529 
L 240.461769 -288.38564 
L 239.369735 -287.568751 
L 238.217968 -286.751862 
L 237.026829 -285.934973 
L 235.815043 -285.118084 
L 234.599136 -284.301195 
L 233.393007 -283.484306 
L 232.207642 -282.667417 
L 231.050983 -281.850528 
L 229.927961 -281.033639 
L 228.840663 -280.21675 
L 227.788642 -279.399861 
L 226.769316 -278.582972 
L 225.77846 -277.766083 
L 224.810726 -276.949194 
L 223.860192 -276.132305 
L 222.920883 -275.315416 
L 221.987254 -274.498527 
L 221.0546 -273.681638 
L 220.119393 -272.864749 
L 219.179509 -272.04786 
L 218.234366 -271.230971 
L 217.284953 -270.414082 
L 216.333765 -269.597193 
L 215.384654 -268.780305 
L 214.442608 -267.963416 
L 213.513473 -267.146527 
L 212.603645 -266.329638 
L 211.71974 -265.512749 
L 210.868276 -264.69586 
L 210.055368 -263.878971 
L 209.286473 -263.062082 
L 208.566167 -262.245193 
L 207.897998 -261.428304 
L 207.284386 -260.611415 
L 206.726591 -259.794526 
L 206.224741 -258.977637 
L 205.777901 -258.160748 
L 205.384194 -257.343859 
L 205.040944 -256.52697 
L 204.744842 -255.710081 
L 204.492118 -254.893192 
L 204.278708 -254.076303 
z
" style="stroke: #4c4c4c; stroke-opacity: 0.3"/>
    </defs>
    <g clip-path="url(#p355bb0631f)">
     <use xlink:href="#m138d48badd" x="0" y="432" style="fill: #5875a4; fill-opacity: 0.3; stroke: #4c4c4c; stroke-opacity: 0.3"/>
    </g>
   </g>
   <g id="patch_3">
    <path d="M 91.8 467.64 
L 91.8 467.64 
L 91.8 467.64 
L 91.8 467.64 
z
" clip-path="url(#p355bb0631f)" style="fill: #b55d60; stroke: #4c4c4c; stroke-linejoin: miter"/>
   </g>
   <g id="patch_4">
    <path d="M 91.8 467.64 
L 91.8 467.64 
L 91.8 467.64 
L 91.8 467.64 
z
" clip-path="url(#p355bb0631f)" style="fill: #5875a4; stroke: #4c4c4c; stroke-linejoin: miter"/>
   </g>
   <g id="line2d_8">
    <path d="M 65.13773 147.793846 
L 91.8 147.793846 
" clip-path="url(#p355bb0631f)" style="fill: none; stroke-dasharray: 1.25,0.75; stroke-dashoffset: 0; stroke: #4c4c4c"/>
   </g>
   <g id="line2d_9">
    <path d="M 51.797004 115.809231 
L 91.8 115.809231 
" clip-path="url(#p355bb0631f)" style="fill: none; stroke-dasharray: 2.5,1; stroke-dashoffset: 0; stroke: #4c4c4c"/>
   </g>
   <g id="line2d_10">
    <path d="M 47.236315 105.858462 
L 91.8 105.858462 
" clip-path="url(#p355bb0631f)" style="fill: none; stroke-dasharray: 1.25,0.75; stroke-dashoffset: 0; stroke: #4c4c4c"/>
   </g>
   <g id="line2d_11">
    <path d="M 91.8 159.166154 
L 131.326349 159.166154 
" clip-path="url(#p355bb0631f)" style="fill: none; stroke-dasharray: 1.25,0.75; stroke-dashoffset: 0; stroke: #4c4c4c"/>
   </g>
   <g id="line2d_12">
    <path d="M 91.8 149.215385 
L 135.107028 149.215385 
" clip-path="url(#p355bb0631f)" style="fill: none; stroke-dasharray: 2.5,1; stroke-dashoffset: 0; stroke: #4c4c4c"/>
   </g>
   <g id="line2d_13">
    <path d="M 91.8 145.306154 
L 129.444426 145.306154 
" clip-path="url(#p355bb0631f)" style="fill: none; stroke-dasharray: 1.25,0.75; stroke-dashoffset: 0; stroke: #4c4c4c"/>
   </g>
   <g id="line2d_14">
    <path d="M 177.562432 153.835385 
L 203.4 153.835385 
" clip-path="url(#p355bb0631f)" style="fill: none; stroke-dasharray: 1.25,0.75; stroke-dashoffset: 0; stroke: #4c4c4c"/>
   </g>
   <g id="line2d_15">
    <path d="M 169.597166 120.784615 
L 203.4 120.784615 
" clip-path="url(#p355bb0631f)" style="fill: none; stroke-dasharray: 2.5,1; stroke-dashoffset: 0; stroke: #4c4c4c"/>
   </g>
   <g id="line2d_16">
    <path d="M 167.560757 106.569231 
L 203.4 106.569231 
" clip-path="url(#p355bb0631f)" style="fill: none; stroke-dasharray: 1.25,0.75; stroke-dashoffset: 0; stroke: #4c4c4c"/>
   </g>
   <g id="line2d_17">
    <path d="M 203.4 144.950769 
L 238.637241 144.950769 
" clip-path="url(#p355bb0631f)" style="fill: none; stroke-dasharray: 1.25,0.75; stroke-dashoffset: 0; stroke: #4c4c4c"/>
   </g>
   <g id="line2d_18">
    <path d="M 203.4 139.975385 
L 244.025528 139.975385 
" clip-path="url(#p355bb0631f)" style="fill: none; stroke-dasharray: 2.5,1; stroke-dashoffset: 0; stroke: #4c4c4c"/>
   </g>
   <g id="line2d_19">
    <path d="M 203.4 131.801538 
L 239.597514 131.801538 
" clip-path="url(#p355bb0631f)" style="fill: none; stroke-dasharray: 1.25,0.75; stroke-dashoffset: 0; stroke: #4c4c4c"/>
   </g>
   <g id="patch_5">
    <path d="M 26 384.48 
L 26 51.84 
" style="fill: none; stroke: #262626; stroke-width: 1.25; stroke-linejoin: miter; stroke-linecap: square"/>
   </g>
   <g id="patch_6">
    <path d="M 91.8 394.48 
L 203.4 394.48 
" style="fill: none; stroke: #262626; stroke-width: 1.25; stroke-linejoin: miter; stroke-linecap: square"/>
   </g>
   <g id="PathCollection_1">
    <defs>
     <path id="C0_0_f511ff9cdc" d="M 0 2.5 
C 0.663008 2.5 1.29895 2.236584 1.767767 1.767767 
C 2.236584 1.29895 2.5 0.663008 2.5 -0 
C 2.5 -0.663008 2.236584 -1.29895 1.767767 -1.767767 
C 1.29895 -2.236584 0.663008 -2.5 0 -2.5 
C -0.663008 -2.5 -1.29895 -2.236584 -1.767767 -1.767767 
C -2.236584 -1.29895 -2.5 -0.663008 -2.5 0 
C -2.5 0.663008 -2.236584 1.29895 -1.767767 1.767767 
C -1.29895 2.236584 -0.663008 2.5 0 2.5 
z
"/>
    </defs>
    <g clip-path="url(#p355bb0631f)">
     <use xlink:href="#C0_0_f511ff9cdc" x="91.8" y="93.775385" style="fill: #c44e52"/>
    </g>
    <g clip-path="url(#p355bb0631f)">
     <use xlink:href="#C0_0_f511ff9cdc" x="86.766651" y="115.809231" style="fill: #c44e52"/>
    </g>
    <g clip-path="url(#p355bb0631f)">
     <use xlink:href="#C0_0_f511ff9cdc" x="94.540692" y="145.661538" style="fill: #c44e52"/>
    </g>
    <g clip-path="url(#p355bb0631f)">
     <use xlink:href="#C0_0_f511ff9cdc" x="91.8" y="117.230769" style="fill: #c44e52"/>
    </g>
    <g clip-path="url(#p355bb0631f)">
     <use xlink:href="#C0_0_f511ff9cdc" x="101.368668" y="105.858462" style="fill: #c44e52"/>
    </g>
    <g clip-path="url(#p355bb0631f)">
     <use xlink:href="#C0_0_f511ff9cdc" x="91.8" y="108.701538" style="fill: #c44e52"/>
    </g>
    <g clip-path="url(#p355bb0631f)">
     <use xlink:href="#C0_0_f511ff9cdc" x="104.770725" y="162.009231" style="fill: #c44e52"/>
    </g>
    <g clip-path="url(#p355bb0631f)">
     <use xlink:href="#C0_0_f511ff9cdc" x="99.574041" y="162.72" style="fill: #c44e52"/>
    </g>
    <g clip-path="url(#p355bb0631f)">
     <use xlink:href="#C0_0_f511ff9cdc" x="96.118668" y="105.858462" style="fill: #c44e52"/>
    </g>
    <g clip-path="url(#p355bb0631f)">
     <use xlink:href="#C0_0_f511ff9cdc" x="91.8" y="101.593846" style="fill: #c44e52"/>
    </g>
    <g clip-path="url(#p355bb0631f)">
     <use xlink:href="#C0_0_f511ff9cdc" x="86.766651" y="107.28" style="fill: #c44e52"/>
    </g>
    <g clip-path="url(#p355bb0631f)">
     <use xlink:href="#C0_0_f511ff9cdc" x="94.020388" y="140.686154" style="fill: #c44e52"/>
    </g>
    <g clip-path="url(#p355bb0631f)">
     <use xlink:href="#C0_0_f511ff9cdc" x="98.859361" y="149.926154" style="fill: #c44e52"/>
    </g>
    <g clip-path="url(#p355bb0631f)">
     <use xlink:href="#C0_0_f511ff9cdc" x="91.8" y="168.406154" style="fill: #c44e52"/>
    </g>
    <g clip-path="url(#p355bb0631f)">
     <use xlink:href="#C0_0_f511ff9cdc" x="88.107017" y="98.04" style="fill: #c44e52"/>
    </g>
    <g clip-path="url(#p355bb0631f)">
     <use xlink:href="#C0_0_f511ff9cdc" x="91.8" y="122.916923" style="fill: #4c72b0"/>
    </g>
    <g clip-path="url(#p355bb0631f)">
     <use xlink:href="#C0_0_f511ff9cdc" x="89.792037" y="143.529231" style="fill: #4c72b0"/>
    </g>
    <g clip-path="url(#p355bb0631f)">
     <use xlink:href="#C0_0_f511ff9cdc" x="91.279696" y="130.024615" style="fill: #4c72b0"/>
    </g>
    <g clip-path="url(#p355bb0631f)">
     <use xlink:href="#C0_0_f511ff9cdc" x="94.540692" y="152.769231" style="fill: #4c72b0"/>
    </g>
    <g clip-path="url(#p355bb0631f)">
     <use xlink:href="#C0_0_f511ff9cdc" x="103.178029" y="147.083077" style="fill: #4c72b0"/>
    </g>
    <g clip-path="url(#p355bb0631f)">
     <use xlink:href="#C0_0_f511ff9cdc" x="85.651026" y="148.504615" style="fill: #4c72b0"/>
    </g>
    <g clip-path="url(#p355bb0631f)">
     <use xlink:href="#C0_0_f511ff9cdc" x="80.617677" y="147.083077" style="fill: #4c72b0"/>
    </g>
    <g clip-path="url(#p355bb0631f)">
     <use xlink:href="#C0_0_f511ff9cdc" x="88.107017" y="164.852308" style="fill: #4c72b0"/>
    </g>
    <g clip-path="url(#p355bb0631f)">
     <use xlink:href="#C0_0_f511ff9cdc" x="83.788349" y="162.009231" style="fill: #4c72b0"/>
    </g>
    <g clip-path="url(#p355bb0631f)">
     <use xlink:href="#C0_0_f511ff9cdc" x="94.540692" y="164.141538" style="fill: #4c72b0"/>
    </g>
    <g clip-path="url(#p355bb0631f)">
     <use xlink:href="#C0_0_f511ff9cdc" x="91.8" y="157.033846" style="fill: #4c72b0"/>
    </g>
    <g clip-path="url(#p355bb0631f)">
     <use xlink:href="#C0_0_f511ff9cdc" x="88.107017" y="153.48" style="fill: #4c72b0"/>
    </g>
    <g clip-path="url(#p355bb0631f)">
     <use xlink:href="#C0_0_f511ff9cdc" x="78.591665" y="161.298462" style="fill: #4c72b0"/>
    </g>
    <g clip-path="url(#p355bb0631f)">
     <use xlink:href="#C0_0_f511ff9cdc" x="91.8" y="135" style="fill: #4c72b0"/>
    </g>
    <g clip-path="url(#p355bb0631f)">
     <use xlink:href="#C0_0_f511ff9cdc" x="90.84771" y="149.215385" style="fill: #4c72b0"/>
    </g>
   </g>
   <g id="PathCollection_2">
    <defs>
     <path id="C1_0_3b9aea5493" d="M 0 2.5 
C 0.663008 2.5 1.29895 2.236584 1.767767 1.767767 
C 2.236584 1.29895 2.5 0.663008 2.5 -0 
C 2.5 -0.663008 2.236584 -1.29895 1.767767 -1.767767 
C 1.29895 -2.236584 0.663008 -2.5 0 -2.5 
C -0.663008 -2.5 -1.29895 -2.236584 -1.767767 -1.767767 
C -2.236584 -1.29895 -2.5 -0.663008 -2.5 0 
C -2.5 0.663008 -2.236584 1.29895 -1.767767 1.767767 
C -1.29895 2.236584 -0.663008 2.5 0 2.5 
z
"/>
    </defs>
    <g clip-path="url(#p355bb0631f)">
     <use xlink:href="#C1_0_3b9aea5493" x="202.879696" y="88.8" style="fill: #c44e52"/>
    </g>
    <g clip-path="url(#p355bb0631f)">
     <use xlink:href="#C1_0_3b9aea5493" x="207.718668" y="168.406154" style="fill: #c44e52"/>
    </g>
    <g clip-path="url(#p355bb0631f)">
     <use xlink:href="#C1_0_3b9aea5493" x="204.455672" y="146.372308" style="fill: #c44e52"/>
    </g>
    <g clip-path="url(#p355bb0631f)">
     <use xlink:href="#C1_0_3b9aea5493" x="203.4" y="120.784615" style="fill: #c44e52"/>
    </g>
    <g clip-path="url(#p355bb0631f)">
     <use xlink:href="#C1_0_3b9aea5493" x="202.879696" y="101.593846" style="fill: #c44e52"/>
    </g>
    <g clip-path="url(#p355bb0631f)">
     <use xlink:href="#C1_0_3b9aea5493" x="208.07638" y="115.098462" style="fill: #c44e52"/>
    </g>
    <g clip-path="url(#p355bb0631f)">
     <use xlink:href="#C1_0_3b9aea5493" x="203.4" y="171.249231" style="fill: #c44e52"/>
    </g>
    <g clip-path="url(#p355bb0631f)">
     <use xlink:href="#C1_0_3b9aea5493" x="198.651345" y="169.116923" style="fill: #c44e52"/>
    </g>
    <g clip-path="url(#p355bb0631f)">
     <use xlink:href="#C1_0_3b9aea5493" x="198.15" y="106.569231" style="fill: #c44e52"/>
    </g>
    <g clip-path="url(#p355bb0631f)">
     <use xlink:href="#C1_0_3b9aea5493" x="203.4" y="106.569231" style="fill: #c44e52"/>
    </g>
    <g clip-path="url(#p355bb0631f)">
     <use xlink:href="#C1_0_3b9aea5493" x="212.395048" y="112.255385" style="fill: #c44e52"/>
    </g>
    <g clip-path="url(#p355bb0631f)">
     <use xlink:href="#C1_0_3b9aea5493" x="193.884648" y="137.843077" style="fill: #c44e52"/>
    </g>
    <g clip-path="url(#p355bb0631f)">
     <use xlink:href="#C1_0_3b9aea5493" x="203.4" y="135.710769" style="fill: #c44e52"/>
    </g>
    <g clip-path="url(#p355bb0631f)">
     <use xlink:href="#C1_0_3b9aea5493" x="198.203316" y="161.298462" style="fill: #c44e52"/>
    </g>
    <g clip-path="url(#p355bb0631f)">
     <use xlink:href="#C1_0_3b9aea5493" x="203.4" y="93.775385" style="fill: #c44e52"/>
    </g>
    <g clip-path="url(#p355bb0631f)">
     <use xlink:href="#C1_0_3b9aea5493" x="202.879696" y="115.809231" style="fill: #4c72b0"/>
    </g>
    <g clip-path="url(#p355bb0631f)">
     <use xlink:href="#C1_0_3b9aea5493" x="198.203316" y="140.686154" style="fill: #4c72b0"/>
    </g>
    <g clip-path="url(#p355bb0631f)">
     <use xlink:href="#C1_0_3b9aea5493" x="193.90269" y="131.446154" style="fill: #4c72b0"/>
    </g>
    <g clip-path="url(#p355bb0631f)">
     <use xlink:href="#C1_0_3b9aea5493" x="203.4" y="152.058462" style="fill: #4c72b0"/>
    </g>
    <g clip-path="url(#p355bb0631f)">
     <use xlink:href="#C1_0_3b9aea5493" x="203.4" y="127.181538" style="fill: #4c72b0"/>
    </g>
    <g clip-path="url(#p355bb0631f)">
     <use xlink:href="#C1_0_3b9aea5493" x="208.65" y="135.710769" style="fill: #4c72b0"/>
    </g>
    <g clip-path="url(#p355bb0631f)">
     <use xlink:href="#C1_0_3b9aea5493" x="212.342983" y="132.156923" style="fill: #4c72b0"/>
    </g>
    <g clip-path="url(#p355bb0631f)">
     <use xlink:href="#C1_0_3b9aea5493" x="203.4" y="141.396923" style="fill: #4c72b0"/>
    </g>
    <g clip-path="url(#p355bb0631f)">
     <use xlink:href="#C1_0_3b9aea5493" x="213.683349" y="139.975385" style="fill: #4c72b0"/>
    </g>
    <g clip-path="url(#p355bb0631f)">
     <use xlink:href="#C1_0_3b9aea5493" x="199.707017" y="148.504615" style="fill: #4c72b0"/>
    </g>
    <g clip-path="url(#p355bb0631f)">
     <use xlink:href="#C1_0_3b9aea5493" x="203.4" y="162.009231" style="fill: #4c72b0"/>
    </g>
    <g clip-path="url(#p355bb0631f)">
     <use xlink:href="#C1_0_3b9aea5493" x="208.65" y="141.396923" style="fill: #4c72b0"/>
    </g>
    <g clip-path="url(#p355bb0631f)">
     <use xlink:href="#C1_0_3b9aea5493" x="202.879696" y="157.033846" style="fill: #4c72b0"/>
    </g>
    <g clip-path="url(#p355bb0631f)">
     <use xlink:href="#C1_0_3b9aea5493" x="198.561027" y="112.966154" style="fill: #4c72b0"/>
    </g>
    <g clip-path="url(#p355bb0631f)">
     <use xlink:href="#C1_0_3b9aea5493" x="198.651345" y="133.578462" style="fill: #4c72b0"/>
    </g>
   </g>
   <g id="line2d_20"/>
   <g id="line2d_21"/>
   <g id="legend_1">
    <g id="patch_7">
     <path d="M 43.7 378.98 
L 114.357813 378.98 
Q 116.557813 378.98 116.557813 376.78 
L 116.557813 315.640625 
Q 116.557813 313.440625 114.357813 313.440625 
L 43.7 313.440625 
Q 41.5 313.440625 41.5 315.640625 
L 41.5 376.78 
Q 41.5 378.98 43.7 378.98 
z
" style="fill: #ffffff; opacity: 0.8; stroke: #cccccc; stroke-linejoin: miter"/>
    </g>
    <g id="patch_8">
     <path d="M 45.9 325.714219 
L 67.9 325.714219 
L 67.9 318.014219 
L 45.9 318.014219 
z
" style="fill: #b55d60; stroke: #4c4c4c; stroke-linejoin: miter"/>
    </g>
    <g id="text_10">
     <!-- Human -->
     <g style="fill: #262626" transform="translate(76.7 325.714219) scale(0.11 -0.11)">
      <defs>
       <path id="ArialMT-48" d="M 513 0 
L 513 4581 
L 1119 4581 
L 1119 2700 
L 3500 2700 
L 3500 4581 
L 4106 4581 
L 4106 0 
L 3500 0 
L 3500 2159 
L 1119 2159 
L 1119 0 
L 513 0 
z
" transform="scale(0.015625)"/>
       <path id="ArialMT-6d" d="M 422 0 
L 422 3319 
L 925 3319 
L 925 2853 
Q 1081 3097 1340 3245 
Q 1600 3394 1931 3394 
Q 2300 3394 2536 3241 
Q 2772 3088 2869 2813 
Q 3263 3394 3894 3394 
Q 4388 3394 4653 3120 
Q 4919 2847 4919 2278 
L 4919 0 
L 4359 0 
L 4359 2091 
Q 4359 2428 4304 2576 
Q 4250 2725 4106 2815 
Q 3963 2906 3769 2906 
Q 3419 2906 3187 2673 
Q 2956 2441 2956 1928 
L 2956 0 
L 2394 0 
L 2394 2156 
Q 2394 2531 2256 2718 
Q 2119 2906 1806 2906 
Q 1569 2906 1367 2781 
Q 1166 2656 1075 2415 
Q 984 2175 984 1722 
L 984 0 
L 422 0 
z
" transform="scale(0.015625)"/>
      </defs>
      <use xlink:href="#ArialMT-48"/>
      <use xlink:href="#ArialMT-75" x="72.216797"/>
      <use xlink:href="#ArialMT-6d" x="127.832031"/>
      <use xlink:href="#ArialMT-61" x="211.132812"/>
      <use xlink:href="#ArialMT-6e" x="266.748047"/>
     </g>
    </g>
    <g id="patch_9">
     <path d="M 45.9 341.274063 
L 67.9 341.274063 
L 67.9 333.574063 
L 45.9 333.574063 
z
" style="fill: #5875a4; stroke: #4c4c4c; stroke-linejoin: miter"/>
    </g>
    <g id="text_11">
     <!-- AI -->
     <g style="fill: #262626" transform="translate(76.7 341.274063) scale(0.11 -0.11)">
      <defs>
       <path id="ArialMT-41" d="M -9 0 
L 1750 4581 
L 2403 4581 
L 4278 0 
L 3588 0 
L 3053 1388 
L 1138 1388 
L 634 0 
L -9 0 
z
M 1313 1881 
L 2866 1881 
L 2388 3150 
Q 2169 3728 2063 4100 
Q 1975 3659 1816 3225 
L 1313 1881 
z
" transform="scale(0.015625)"/>
       <path id="ArialMT-49" d="M 597 0 
L 597 4581 
L 1203 4581 
L 1203 0 
L 597 0 
z
" transform="scale(0.015625)"/>
      </defs>
      <use xlink:href="#ArialMT-41"/>
      <use xlink:href="#ArialMT-49" x="66.699219"/>
     </g>
    </g>
    <g id="line2d_22">
     <defs>
      <path id="m0fd20177bc" d="M 0 2.5 
C 0.663008 2.5 1.29895 2.236584 1.767767 1.767767 
C 2.236584 1.29895 2.5 0.663008 2.5 0 
C 2.5 -0.663008 2.236584 -1.29895 1.767767 -1.767767 
C 1.29895 -2.236584 0.663008 -2.5 0 -2.5 
C -0.663008 -2.5 -1.29895 -2.236584 -1.767767 -1.767767 
C -2.236584 -1.29895 -2.5 -0.663008 -2.5 0 
C -2.5 0.663008 -2.236584 1.29895 -1.767767 1.767767 
C -1.29895 2.236584 -0.663008 2.5 0 2.5 
z
"/>
     </defs>
     <g>
      <use xlink:href="#m0fd20177bc" x="56.9" y="352.983906" style="fill: #c44e52"/>
     </g>
    </g>
    <g id="text_12">
     <!-- Human -->
     <g style="fill: #262626" transform="translate(76.7 356.833906) scale(0.11 -0.11)">
      <use xlink:href="#ArialMT-48"/>
      <use xlink:href="#ArialMT-75" x="72.216797"/>
      <use xlink:href="#ArialMT-6d" x="127.832031"/>
      <use xlink:href="#ArialMT-61" x="211.132812"/>
      <use xlink:href="#ArialMT-6e" x="266.748047"/>
     </g>
    </g>
    <g id="line2d_23">
     <defs>
      <path id="m8098962fa1" d="M 0 2.5 
C 0.663008 2.5 1.29895 2.236584 1.767767 1.767767 
C 2.236584 1.29895 2.5 0.663008 2.5 0 
C 2.5 -0.663008 2.236584 -1.29895 1.767767 -1.767767 
C 1.29895 -2.236584 0.663008 -2.5 0 -2.5 
C -0.663008 -2.5 -1.29895 -2.236584 -1.767767 -1.767767 
C -2.236584 -1.29895 -2.5 -0.663008 -2.5 0 
C -2.5 0.663008 -2.236584 1.29895 -1.767767 1.767767 
C -1.29895 2.236584 -0.663008 2.5 0 2.5 
z
"/>
     </defs>
     <g>
      <use xlink:href="#m8098962fa1" x="56.9" y="368.54375" style="fill: #4c72b0"/>
     </g>
    </g>
    <g id="text_13">
     <!-- AI -->
     <g style="fill: #262626" transform="translate(76.7 372.39375) scale(0.11 -0.11)">
      <use xlink:href="#ArialMT-41"/>
      <use xlink:href="#ArialMT-49" x="66.699219"/>
     </g>
    </g>
   </g>
  </g>
 </g>
 <defs>
  <clipPath id="p355bb0631f">
   <rect x="36" y="51.84" width="223.2" height="332.64"/>
  </clipPath>
 </defs>
</svg>
